<?xml version="1.0" encoding="utf-8"?>
<!-- Generator: Adobe Illustrator 24.0.1, SVG Export Plug-In . SVG Version: 6.00 Build 0)  -->
<svg version="1.1" id="Layer_1" xmlns="http://www.w3.org/2000/svg" xmlns:xlink="http://www.w3.org/1999/xlink" x="0px" y="0px"
	 viewBox="0 0 71.1 20.1" style="enable-background:new 0 0 71.1 20.1;" xml:space="preserve">
<style type="text/css">
	.st0{fill:#003082;}
</style>
<polygon class="st0" points="12.5,0 15.7,6.6 23,7.6 17.7,12.8 19,20 12.5,16.6 6,20 7.3,12.8 2,7.6 9.3,6.6 "/>
<polygon class="st0" points="35.5,0 38.7,6.6 46,7.6 40.7,12.8 42,20 35.5,16.6 29,20 30.3,12.8 25,7.6 32.3,6.6 "/>
<polygon class="st0" points="58.5,0 61.7,6.6 69,7.6 63.7,12.8 65,20 58.5,16.6 52,20 53.3,12.8 48,7.6 55.3,6.6 "/>
</svg>
