<?xml version="1.0" encoding="utf-8"?>
<!-- Generator: Adobe Illustrator 24.0.1, SVG Export Plug-In . SVG Version: 6.00 Build 0)  -->
<svg version="1.1" id="Layer_1" xmlns="http://www.w3.org/2000/svg" xmlns:xlink="http://www.w3.org/1999/xlink" x="0px" y="0px"
	 viewBox="0 0 94 20.1" style="enable-background:new 0 0 94 20.1;" xml:space="preserve">
<style type="text/css">
	.st0{fill:#003082;}
</style>
<polygon class="st0" points="12.5,0 15.7,6.6 23,7.6 17.7,12.8 19,20 12.5,16.6 6,20 7.3,12.8 2,7.6 9.3,6.6 "/>
<polygon class="st0" points="35.5,0 38.7,6.6 46,7.6 40.7,12.8 42,20 35.5,16.6 29,20 30.3,12.8 25,7.6 32.3,6.6 "/>
<polygon class="st0" points="81.5,0 84.7,6.6 92,7.6 86.7,12.8 88,20 81.5,16.6 75,20 76.3,12.8 71,7.6 78.3,6.6 "/>
<polygon class="st0" points="58.4,0 61.6,6.6 68.9,7.6 63.6,12.8 64.9,20 58.4,16.6 51.9,20 53.2,12.8 47.9,7.6 55.2,6.6 "/>
</svg>
