<?xml version="1.0" encoding="utf-8"?>
<!-- Generator: Adobe Illustrator 21.1.0, SVG Export Plug-In . SVG Version: 6.00 Build 0)  -->
<svg version="1.1" id="Layer_1" xmlns="http://www.w3.org/2000/svg" xmlns:xlink="http://www.w3.org/1999/xlink" x="0px" y="0px"
	 viewBox="0 0 103.6 35" style="enable-background:new 0 0 103.6 35;" xml:space="preserve">
<style type="text/css">
	.st0{fill:#003082;}
</style>
<polygon class="st0" points="16.3,7.5 19.5,14.1 26.8,15.1 21.5,20.3 22.8,27.5 16.3,24.1 9.8,27.5 11.1,20.3 5.8,15.1 13.1,14.1 
	"/>
<polygon class="st0" points="39.3,7.5 42.5,14.1 49.8,15.1 44.5,20.3 45.8,27.5 39.3,24.1 32.8,27.5 34.1,20.3 28.8,15.1 36.1,14.1 
	"/>
<polygon class="st0" points="62.2,7.5 65.4,14.1 72.7,15.1 67.4,20.3 68.7,27.5 62.2,24.1 55.7,27.5 57,20.3 51.7,15.1 59,14.1 "/>
<polygon class="st0" points="85.2,7.5 88.4,14.1 95.7,15.1 90.4,20.3 91.7,27.5 85.2,24.1 78.7,27.5 80,20.3 74.7,15.1 82,14.1 "/>
</svg>
