<?xml version="1.0" encoding="utf-8"?>
<!-- Generator: Adobe Illustrator 24.0.1, SVG Export Plug-In . SVG Version: 6.00 Build 0)  -->
<svg version="1.1" id="Layer_1" xmlns="http://www.w3.org/2000/svg" xmlns:xlink="http://www.w3.org/1999/xlink" x="0px" y="0px"
	 viewBox="0 0 35 35" style="enable-background:new 0 0 35 35;" xml:space="preserve">
<style type="text/css">
	.st0{fill:#053380;}
</style>
<g>
	<g>
		<path class="st0" d="M24.1,7.6H10.9c-1.4,0-2.5,1.1-2.5,2.5v11.6c0,1.4,1.1,2.5,2.5,2.5h0.8v-0.8h-0.8c-0.9,0-1.7-0.7-1.7-1.7
			V10.1c0-0.9,0.7-1.7,1.7-1.7h13.2c0.9,0,1.7,0.7,1.7,1.7v11.6c0,0.9-0.7,1.7-1.7,1.7H15l-0.9,0.8h10c1.4,0,2.5-1.1,2.5-2.5V10.1
			C26.6,8.7,25.5,7.6,24.1,7.6z"/>
	</g>
</g>
<g>
	<g>
		<polygon class="st0" points="14.8,23.4 12.5,25.5 12.5,23.4 11.7,23.4 11.7,27.5 15.8,23.4 		"/>
	</g>
</g>
</svg>
