<?xml version="1.0" encoding="utf-8"?>
<!-- Generator: Adobe Illustrator 24.0.1, SVG Export Plug-In . SVG Version: 6.00 Build 0)  -->
<svg class="test" version="1.1" id="Layer_1" xmlns="http://www.w3.org/2000/svg" xmlns:xlink="http://www.w3.org/1999/xlink" x="0px" y="0px"
	 viewBox="0 0 35 35" style="enable-background:new 0 0 35 35;" xml:space="preserve">
<style type="text/css">
	.st0{fill:#053380;}
</style>
<g>
	<g>
		<path class="st0" d="M17.5,27.5c-5.5,0-10-4.5-10-10s4.5-10,10-10s10,4.5,10,10S23,27.5,17.5,27.5z M17.5,8.5c-5,0-9,4-9,9
			s4,9,9,9s9-4,9-9S22.5,8.5,17.5,8.5z"/>
	</g>
</g>
<path class="st0" d="M17.5,24.6L17.5,24.6c-0.3,0-0.5-0.2-0.5-0.5V10.8c0-0.3,0.2-0.5,0.5-0.5l0,0c0.3,0,0.5,0.2,0.5,0.5v13.3
	C18,24.4,17.8,24.6,17.5,24.6z"/>
<path class="st0" d="M24.7,17.4L24.7,17.4c0,0.3-0.2,0.5-0.5,0.5H10.9c-0.3,0-0.5-0.2-0.5-0.5l0,0c0-0.3,0.2-0.5,0.5-0.5h13.3
	C24.4,16.9,24.7,17.2,24.7,17.4z"/>
</svg>
