<?xml version="1.0" encoding="utf-8"?><!DOCTYPE svg PUBLIC "-//W3C//DTD SVG 1.1//EN" "http://www.w3.org/Graphics/SVG/1.1/DTD/svg11.dtd"><svg version="1.1" id="Layer_1" xmlns="http://www.w3.org/2000/svg" xmlns:xlink="http://www.w3.org/1999/xlink" x="0px" y="0px"     width="35px" height="35px" viewBox="0 0 35 35" enable-background="new 0 0 35 35" xml:space="preserve">    <rect x="9" y="12" fill="#01247D" width="17" height="11"/>    <polygon fill="#FFFFFF" points="26,15.9 19.2,15.9 19.2,12 15.8,12 15.8,15.9 9,15.9 9,19.2 15.8,19.2 15.8,23 19.2,23 19.2,19.2        26,19.2     "/>    <polygon fill="#FFFFFF" points="26,21.7 11,12 9,12 9,13.3 24,23 26,23   "/>    <polygon fill="#FFFFFF" points="9,21.7 24,12 26,12 26,13.3 11,23 9,23   "/>    <polygon fill="#CF142B" points="26,16.5 18.5,16.5 18.5,12 16.5,12 16.5,16.5 9,16.5 9,18.5 16.5,18.5 16.5,23 18.5,23 18.5,18.5        26,18.5     "/>    <polygon fill="#CF142B" points="26,23 26,22.1 21.4,19.2 20.1,19.2   "/>    <polygon fill="#CF142B" points="26,12 24.7,12 19.2,15.5 19.2,15.9 20,15.9 26,12     "/>    <polygon fill="#CF142B" points="14.9,19.2 9,23 9,23 10.3,23 15.8,19.4 15.8,19.2     "/>    <polygon fill="#CF142B" points="9,12 9,12.9 13.6,15.9 15,15.9   "/></svg>